@startuml ed

hide circle
hide fields

!theme crt-green
skinparam nodesep 150
hide empty members
left to right direction

package "<<agr Elevador>>"{
    class Elevador<<entity>><<root>>{}
    class NumeroIdentificativo<<vo>>{}
    class PisosServidos<<vo>>{}
    class MarcaElevador<<vo>>{}
    class ModeloElevador<<vo>>{}
    class NumeroSerieElevador<<vo>>{}
    class DescricaoElevador<<vo>>{}

    Elevador --> "1" NumeroIdentificativo
    Elevador --> "*" PisosServidos
    Elevador --> "1" MarcaElevador
    Elevador --> "1" ModeloElevador
    Elevador --> "1" NumeroSerieElevador
    Elevador --> "1" DescricaoElevador
}

@enduml